<svg width="17" height="16" viewBox="0 0 17 16" fill="none" xmlns="http://www.w3.org/2000/svg">
<path d="M14.3333 6L14.3333 2M14.3333 2H10.3333M14.3333 2L8.99998 7.33333M6.99998 3.33333H5.53331C4.41321 3.33333 3.85316 3.33333 3.42533 3.55132C3.04901 3.74307 2.74305 4.04903 2.5513 4.42535C2.33331 4.85318 2.33331 5.41323 2.33331 6.53333V10.8C2.33331 11.9201 2.33331 12.4802 2.5513 12.908C2.74305 13.2843 3.04901 13.5903 3.42533 13.782C3.85316 14 4.41321 14 5.53331 14H9.79998C10.9201 14 11.4801 14 11.908 13.782C12.2843 13.5903 12.5902 13.2843 12.782 12.908C13 12.4802 13 11.9201 13 10.8V9.33333" stroke="white" stroke-width="1.25" stroke-linecap="round" stroke-linejoin="round"/>
</svg>
