<svg width="24" height="24" viewBox="0 0 24 24" fill="none" xmlns="http://www.w3.org/2000/svg">
<path d="M10.0003 4.2783C10.1825 4.50044 10.2447 4.83521 10.0807 5.13613C9.52011 6.16474 9.20151 7.34302 9.20151 8.59686C9.20151 12.6173 12.4803 15.8727 16.5202 15.8727C17.0466 15.8727 17.5594 15.8175 18.0534 15.7129C18.3912 15.6413 18.6984 15.794 18.8631 16.0286C19.033 16.2707 19.0686 16.6318 18.8318 16.9224C17.3034 18.7985 14.9648 20 12.3436 20C7.73342 20 4 16.2863 4 11.71C4 8.2658 6.11415 5.31197 9.12354 4.06009C9.47124 3.91545 9.81229 4.04909 10.0003 4.2783Z" fill="white"/>
<path d="M14.7943 7.14824C14.8602 6.95059 15.1398 6.95059 15.2057 7.14824L15.593 8.3101C15.7656 8.828 16.172 9.2344 16.6899 9.40703L17.8518 9.79432C18.0494 9.86021 18.0494 10.1398 17.8518 10.2057L16.6899 10.593C16.172 10.7656 15.7656 11.172 15.593 11.6899L15.2057 12.8518C15.1398 13.0494 14.8602 13.0494 14.7943 12.8518L14.407 11.6899C14.2344 11.172 13.828 10.7656 13.3101 10.593L12.1482 10.2057C11.9506 10.1398 11.9506 9.86021 12.1482 9.79432L13.3101 9.40703C13.828 9.2344 14.2344 8.82801 14.407 8.31011L14.7943 7.14824Z" fill="white"/>
<path d="M17.8629 4.09883C17.9068 3.96706 18.0932 3.96706 18.1371 4.09883L18.3953 4.8734C18.5104 5.21867 18.7813 5.4896 19.1266 5.60469L19.9012 5.86288C20.0329 5.9068 20.0329 6.09319 19.9012 6.13711L19.1266 6.39531C18.7813 6.51039 18.5104 6.78133 18.3953 7.12659L18.1371 7.90117C18.0932 8.03294 17.9068 8.03294 17.8629 7.90117L17.6047 7.12659C17.4896 6.78132 17.2187 6.5104 16.8734 6.39531L16.0988 6.13711C15.9671 6.09319 15.9671 5.9068 16.0988 5.86288L16.8734 5.60469C17.2187 5.4896 17.4896 5.21867 17.6047 4.87341L17.8629 4.09883Z" fill="white"/>
</svg>
