<svg width="256" height="124" viewBox="0 0 256 124" fill="none" xmlns="http://www.w3.org/2000/svg">
<path d="M127.502 37.5869L92.0162 57.971L127.737 78.355L163.222 57.971L127.502 37.5869Z" fill="#044416"/>
<path d="M127.568 71.2318L127.671 37.5869L92.1776 57.971L92.0823 91.6159L127.568 71.2318Z" fill="url(#paint0_radial_218_3528)"/>
<path d="M163.288 91.6159L163.391 57.971L127.671 37.5869L127.568 71.2318L163.288 91.6159Z" fill="url(#paint1_linear_218_3528)"/>
<path d="M163.288 91.6159L163.391 57.971L127.671 37.5869L127.568 71.2318L163.288 91.6159Z" fill="url(#paint2_linear_218_3528)"/>
<path d="M114.041 38.1739L78.3865 58.5579L92.0162 57.971L127.671 37.5869L114.041 38.1739Z" fill="url(#paint3_linear_218_3528)"/>
<path d="M114.041 38.1739L78.3865 58.5579L92.0162 57.971L127.671 37.5869L114.041 38.1739Z" fill="url(#paint4_radial_218_3528)"/>
<path d="M141.344 38.1811L176.999 58.5652L163.369 57.9782L127.671 37.5869L141.344 38.1811Z" fill="url(#paint5_linear_218_3528)"/>
<path d="M141.344 38.1811L176.999 58.5652L163.369 57.9782L127.671 37.5869L141.344 38.1811Z" fill="url(#paint6_radial_218_3528)"/>
<path d="M127.737 78.355L127.641 112L163.127 91.6159L163.222 57.9709L127.737 78.355Z" fill="url(#paint7_linear_218_3528)"/>
<path d="M127.737 78.355L127.641 112L163.127 91.6159L163.222 57.9709L127.737 78.355Z" fill="url(#paint8_radial_218_3528)"/>
<path d="M92.0162 57.9709L91.9209 91.6159L127.641 112L127.737 78.355L92.0162 57.9709Z" fill="url(#paint9_linear_218_3528)"/>
<path d="M92.0162 57.9709L91.9209 91.6159L127.641 112L127.737 78.355L92.0162 57.9709Z" fill="url(#paint10_radial_218_3528)"/>
<path d="M92.0162 57.9709L91.9209 91.6159L127.641 112L127.737 78.355L92.0162 57.9709Z" fill="url(#paint11_radial_218_3528)"/>
<path d="M163.391 57.9709L127.737 78.355L142.312 90.884L177.967 70.4999L163.391 57.9709Z" fill="url(#paint12_linear_218_3528)"/>
<path d="M163.391 57.9709L127.737 78.355L142.312 90.884L177.967 70.4999L163.391 57.9709Z" fill="url(#paint13_radial_218_3528)"/>
<path d="M92.0162 57.9492L127.737 78.355L113.616 90.8912L77.4407 70.4782L92.0162 57.9492Z" fill="url(#paint14_linear_218_3528)"/>
<path d="M92.0162 57.9492L127.737 78.355L113.616 90.8912L77.4407 70.4782L92.0162 57.9492Z" fill="url(#paint15_radial_218_3528)"/>
<path d="M145.723 55.8431L147.674 60.8383L173.118 30.2735L171.057 24.9977L145.723 55.8431Z" fill="url(#paint16_linear_218_3528)"/>
<path d="M145.723 55.8431L147.674 60.8383L173.118 30.2735L171.057 24.9977L145.723 55.8431Z" fill="url(#paint17_linear_218_3528)"/>
<path d="M145.763 55.8404L147.714 60.8355L107.351 54.5311L105.29 49.2554L145.763 55.8404Z" fill="url(#paint18_linear_218_3528)"/>
<path d="M145.763 55.8404L147.714 60.8355L107.351 54.5311L105.29 49.2554L145.763 55.8404Z" fill="url(#paint19_linear_218_3528)"/>
<path d="M105.303 49.2567L145.78 55.8426L171.06 25.0152L130.571 18.5633L105.303 49.2567Z" fill="url(#paint20_linear_218_3528)"/>
<path d="M105.303 49.2567L145.78 55.8426L171.06 25.0152L130.571 18.5633L105.303 49.2567Z" fill="url(#paint21_radial_218_3528)"/>
<g filter="url(#filter0_i_218_3528)">
<path d="M123.13 43.1499C123.09 43.049 123.051 42.948 123.212 42.7691C123.293 42.6796 123.374 42.5901 123.524 42.5316L150.61 29.514C150.912 29.3969 151.163 29.2994 151.314 29.2409C151.515 29.1628 151.755 29.1857 151.995 29.2086L154.268 29.5466C154.459 29.589 154.598 29.651 154.638 29.7519C154.677 29.8529 154.717 29.9538 154.555 30.1328C154.474 30.2223 154.394 30.3118 154.243 30.3703L127.157 43.3878C126.856 43.5049 126.604 43.6025 126.454 43.661C126.253 43.739 126.012 43.7161 125.772 43.6932L123.499 43.3552C123.309 43.3128 123.169 43.2509 123.13 43.1499ZM129.823 34.215C129.446 33.5474 129.592 32.7352 130.259 31.7784C130.593 31.3 130.816 30.9811 130.977 30.8021C131.139 30.6231 131.492 30.1952 132.058 29.5687C132.896 28.6039 133.903 27.9223 135.178 27.485C136.434 26.9973 137.798 26.9328 139.21 27.1402C140.622 27.3476 141.501 27.8201 141.877 28.4876C142.203 29.1747 142.058 29.9869 141.36 31.0137C140.914 31.6516 140.561 32.0795 140.399 32.2585C140.238 32.4375 139.965 32.7759 139.561 33.2234C138.703 34.1378 137.646 34.8388 136.421 35.2566C135.145 35.6939 133.852 35.7893 132.49 35.5624C131.128 35.3355 130.269 34.9135 129.873 34.1955L129.823 34.215ZM136.1 44.5071C135.704 43.789 135.85 42.9769 136.517 42.02C136.851 41.5416 137.074 41.2227 137.235 41.0437C137.397 40.8647 137.75 40.4368 138.265 39.8299C139.104 38.865 140.16 38.1639 141.436 37.7267C142.692 37.2389 144.006 37.194 145.468 37.3818C146.879 37.5892 147.758 38.0617 148.135 38.7293C148.461 39.4163 148.316 40.2285 147.567 41.2748C147.122 41.9127 146.819 42.3211 146.657 42.5001C146.496 42.6791 146.223 43.0176 145.819 43.465C144.961 44.3794 143.904 45.0805 142.628 45.5177C141.372 46.0055 140.059 46.0504 138.647 45.8431C137.286 45.6162 136.426 45.1942 136.03 44.4761L136.1 44.5071ZM135.361 33.2849C135.763 33.1288 136.056 32.8408 136.348 32.5528C136.752 32.1054 137.025 31.7669 137.186 31.588C137.348 31.409 137.57 31.09 137.904 30.6116C138.127 30.2927 138.249 30.0128 138.201 29.7409C138.102 29.4886 137.923 29.3257 137.492 29.2604C136.701 29.1607 135.947 29.4534 135.251 30.1888C135.039 30.3873 134.766 30.7257 134.463 31.1342C134.11 31.5621 133.887 31.881 133.695 32.13C133.472 32.4489 133.37 32.7793 133.449 32.9812C133.528 33.1831 133.727 33.3964 134.157 33.4617C134.588 33.527 135.029 33.4719 135.361 33.2849ZM141.639 43.577C142.041 43.4209 142.333 43.1329 142.676 42.8254C143.08 42.378 143.353 42.0395 143.514 41.8606C143.676 41.6816 143.898 41.3626 144.232 40.8842C144.455 40.5653 144.557 40.2349 144.478 40.033C144.399 39.8311 144.2 39.6178 143.77 39.5525C143.339 39.4872 142.898 39.5423 142.566 39.7294C142.164 39.8854 141.871 40.1734 141.579 40.4614C141.367 40.6599 141.094 40.9983 140.791 41.4068C140.437 41.8347 140.215 42.1536 140.023 42.4026C139.8 42.7215 139.678 43.0014 139.726 43.2733C139.805 43.4752 140.004 43.6885 140.435 43.7538C140.865 43.8192 141.257 43.7835 141.639 43.577Z" fill="white"/>
<path d="M123.13 43.1499C123.09 43.049 123.051 42.948 123.212 42.7691C123.293 42.6796 123.374 42.5901 123.524 42.5316L150.61 29.514C150.912 29.3969 151.163 29.2994 151.314 29.2409C151.515 29.1628 151.755 29.1857 151.995 29.2086L154.268 29.5466C154.459 29.589 154.598 29.651 154.638 29.7519C154.677 29.8529 154.717 29.9538 154.555 30.1328C154.474 30.2223 154.394 30.3118 154.243 30.3703L127.157 43.3878C126.856 43.5049 126.604 43.6025 126.454 43.661C126.253 43.739 126.012 43.7161 125.772 43.6932L123.499 43.3552C123.309 43.3128 123.169 43.2509 123.13 43.1499ZM129.823 34.215C129.446 33.5474 129.592 32.7352 130.259 31.7784C130.593 31.3 130.816 30.9811 130.977 30.8021C131.139 30.6231 131.492 30.1952 132.058 29.5687C132.896 28.6039 133.903 27.9223 135.178 27.485C136.434 26.9973 137.798 26.9328 139.21 27.1402C140.622 27.3476 141.501 27.8201 141.877 28.4876C142.203 29.1747 142.058 29.9869 141.36 31.0137C140.914 31.6516 140.561 32.0795 140.399 32.2585C140.238 32.4375 139.965 32.7759 139.561 33.2234C138.703 34.1378 137.646 34.8388 136.421 35.2566C135.145 35.6939 133.852 35.7893 132.49 35.5624C131.128 35.3355 130.269 34.9135 129.873 34.1955L129.823 34.215ZM136.1 44.5071C135.704 43.789 135.85 42.9769 136.517 42.02C136.851 41.5416 137.074 41.2227 137.235 41.0437C137.397 40.8647 137.75 40.4368 138.265 39.8299C139.104 38.865 140.16 38.1639 141.436 37.7267C142.692 37.2389 144.006 37.194 145.468 37.3818C146.879 37.5892 147.758 38.0617 148.135 38.7293C148.461 39.4163 148.316 40.2285 147.567 41.2748C147.122 41.9127 146.819 42.3211 146.657 42.5001C146.496 42.6791 146.223 43.0176 145.819 43.465C144.961 44.3794 143.904 45.0805 142.628 45.5177C141.372 46.0055 140.059 46.0504 138.647 45.8431C137.286 45.6162 136.426 45.1942 136.03 44.4761L136.1 44.5071ZM135.361 33.2849C135.763 33.1288 136.056 32.8408 136.348 32.5528C136.752 32.1054 137.025 31.7669 137.186 31.588C137.348 31.409 137.57 31.09 137.904 30.6116C138.127 30.2927 138.249 30.0128 138.201 29.7409C138.102 29.4886 137.923 29.3257 137.492 29.2604C136.701 29.1607 135.947 29.4534 135.251 30.1888C135.039 30.3873 134.766 30.7257 134.463 31.1342C134.11 31.5621 133.887 31.881 133.695 32.13C133.472 32.4489 133.37 32.7793 133.449 32.9812C133.528 33.1831 133.727 33.3964 134.157 33.4617C134.588 33.527 135.029 33.4719 135.361 33.2849ZM141.639 43.577C142.041 43.4209 142.333 43.1329 142.676 42.8254C143.08 42.378 143.353 42.0395 143.514 41.8606C143.676 41.6816 143.898 41.3626 144.232 40.8842C144.455 40.5653 144.557 40.2349 144.478 40.033C144.399 39.8311 144.2 39.6178 143.77 39.5525C143.339 39.4872 142.898 39.5423 142.566 39.7294C142.164 39.8854 141.871 40.1734 141.579 40.4614C141.367 40.6599 141.094 40.9983 140.791 41.4068C140.437 41.8347 140.215 42.1536 140.023 42.4026C139.8 42.7215 139.678 43.0014 139.726 43.2733C139.805 43.4752 140.004 43.6885 140.435 43.7538C140.865 43.8192 141.257 43.7835 141.639 43.577Z" fill="url(#paint22_linear_218_3528)"/>
</g>
<path style="mix-blend-mode:color-dodge" d="M171.059 24.9991L145.568 54.8179L105.29 49.25L145.774 55.8376L171.059 24.9991Z" fill="url(#paint23_radial_218_3528)"/>
<path d="M203.584 51.322L207.488 56.1408L213.471 54.5715L208.679 58.4913L210.241 64.4648L206.324 59.6841L200.328 61.2281L205.133 57.3336L203.584 51.322Z" fill="url(#paint24_radial_218_3528)"/>
<path d="M72.6494 88.5756L70.8223 92.8677L73.9727 96.2907L69.6796 94.4868L66.2601 97.6289L68.0574 93.3419L64.9194 89.9014L69.2001 91.7227L72.6494 88.5756Z" fill="url(#paint25_radial_218_3528)"/>
<g filter="url(#filter1_d_218_3528)">
<path d="M33.9455 18.8667L38.2888 27.3315L47.7911 26.8605L39.3333 31.2296L39.8043 40.7319L35.4352 32.2741L25.9259 32.7193L34.3907 28.376L33.9455 18.8667Z" fill="url(#paint26_radial_218_3528)"/>
</g>
<defs>
<filter id="filter0_i_218_3528" x="123.095" y="27.0288" width="31.5782" height="18.9312" filterUnits="userSpaceOnUse" color-interpolation-filters="sRGB">
<feFlood flood-opacity="0" result="BackgroundImageFix"/>
<feBlend mode="normal" in="SourceGraphic" in2="BackgroundImageFix" result="shape"/>
<feColorMatrix in="SourceAlpha" type="matrix" values="0 0 0 0 0 0 0 0 0 0 0 0 0 0 0 0 0 0 127 0" result="hardAlpha"/>
<feOffset dy="0.5"/>
<feComposite in2="hardAlpha" operator="arithmetic" k2="-1" k3="1"/>
<feColorMatrix type="matrix" values="0 0 0 0 0.00794373 0 0 0 0 0.311783 0 0 0 0 0.0933985 0 0 0 0.8 0"/>
<feBlend mode="normal" in2="shape" result="effect1_innerShadow_218_3528"/>
</filter>
<filter id="filter1_d_218_3528" x="25.9259" y="18.8667" width="21.8652" height="22.3652" filterUnits="userSpaceOnUse" color-interpolation-filters="sRGB">
<feFlood flood-opacity="0" result="BackgroundImageFix"/>
<feColorMatrix in="SourceAlpha" type="matrix" values="0 0 0 0 0 0 0 0 0 0 0 0 0 0 0 0 0 0 127 0" result="hardAlpha"/>
<feOffset dy="0.5"/>
<feComposite in2="hardAlpha" operator="out"/>
<feColorMatrix type="matrix" values="0 0 0 0 0 0 0 0 0 0.237402 0 0 0 0 0.119771 0 0 0 1 0"/>
<feBlend mode="normal" in2="BackgroundImageFix" result="effect1_dropShadow_218_3528"/>
<feBlend mode="normal" in="SourceGraphic" in2="effect1_dropShadow_218_3528" result="shape"/>
</filter>
<radialGradient id="paint0_radial_218_3528" cx="0" cy="0" r="1" gradientUnits="userSpaceOnUse" gradientTransform="translate(119.72 99.1748) rotate(-109.502) scale(58.288 146.956)">
<stop/>
<stop offset="0.467001" stop-color="#145032"/>
<stop offset="0.716546" stop-color="#025A2E"/>
<stop offset="1" stop-color="#094735"/>
</radialGradient>
<linearGradient id="paint1_linear_218_3528" x1="133.169" y1="76.7681" x2="157.501" y2="52.1496" gradientUnits="userSpaceOnUse">
<stop stop-color="#030422"/>
<stop offset="0.4" stop-color="#0F1654"/>
<stop offset="0.6" stop-color="#172478"/>
<stop offset="0.9" stop-color="#1D2C8E"/>
<stop offset="1" stop-color="#1F2F97"/>
</linearGradient>
<linearGradient id="paint2_linear_218_3528" x1="183" y1="62.5" x2="144.773" y2="32.7153" gradientUnits="userSpaceOnUse">
<stop/>
<stop offset="0.467001" stop-color="#145032"/>
<stop offset="0.716546" stop-color="#025A2E"/>
<stop offset="1" stop-color="#1B8A6A"/>
</linearGradient>
<linearGradient id="paint3_linear_218_3528" x1="99.392" y1="43.9927" x2="106.75" y2="52.455" gradientUnits="userSpaceOnUse">
<stop stop-color="#00A2EA"/>
<stop offset="0.3" stop-color="#0D71C7"/>
<stop offset="0.6" stop-color="#164DAC"/>
<stop offset="0.8" stop-color="#1C379C"/>
<stop offset="1" stop-color="#1F2F97"/>
</linearGradient>
<radialGradient id="paint4_radial_218_3528" cx="0" cy="0" r="1" gradientUnits="userSpaceOnUse" gradientTransform="translate(116.66 61.4919) rotate(-141.641) scale(34.3648 133.982)">
<stop stop-color="white"/>
<stop offset="0.467001" stop-color="#5AD597"/>
<stop offset="0.716546" stop-color="#1B8F55"/>
<stop offset="1" stop-color="#0E664D"/>
</radialGradient>
<linearGradient id="paint5_linear_218_3528" x1="155.971" y1="43.9855" x2="148.599" y2="52.4624" gradientUnits="userSpaceOnUse">
<stop stop-color="#00A2EA"/>
<stop offset="0.3" stop-color="#0D71C7"/>
<stop offset="0.6" stop-color="#164DAC"/>
<stop offset="0.8" stop-color="#1C379C"/>
<stop offset="1" stop-color="#1F2F97"/>
</linearGradient>
<radialGradient id="paint6_radial_218_3528" cx="0" cy="0" r="1" gradientUnits="userSpaceOnUse" gradientTransform="translate(165.978 61.5001) rotate(-141.656) scale(34.3882 134.056)">
<stop stop-color="white"/>
<stop offset="0.467001" stop-color="#5AD597"/>
<stop offset="0.716546" stop-color="#1B8F55"/>
<stop offset="1" stop-color="#0E664D"/>
</radialGradient>
<linearGradient id="paint7_linear_218_3528" x1="122.868" y1="107.283" x2="167.467" y2="62.1586" gradientUnits="userSpaceOnUse">
<stop stop-color="#00A2EA"/>
<stop offset="0.3" stop-color="#0D71C7"/>
<stop offset="0.6" stop-color="#164DAC"/>
<stop offset="0.8" stop-color="#1C379C"/>
<stop offset="1" stop-color="#1F2F97"/>
</linearGradient>
<radialGradient id="paint8_radial_218_3528" cx="0" cy="0" r="1" gradientUnits="userSpaceOnUse" gradientTransform="translate(122 140.5) rotate(-62.1404) scale(79.177 183.003)">
<stop stop-color="white"/>
<stop offset="0.134042" stop-color="#C8FFE3"/>
<stop offset="0.331547" stop-color="#84FFC1"/>
<stop offset="0.518827" stop-color="#5AD597"/>
<stop offset="0.716546" stop-color="#1B8F55"/>
<stop offset="1" stop-color="#0E664D"/>
<stop offset="1" stop-color="#06542D"/>
</radialGradient>
<linearGradient id="paint9_linear_218_3528" x1="109.825" y1="112" x2="109.825" y2="73.5651" gradientUnits="userSpaceOnUse">
<stop stop-color="#36BAEF"/>
<stop offset="0.2" stop-color="#31B1EA"/>
<stop offset="0.5" stop-color="#249BDE"/>
<stop offset="1" stop-color="#0D73C8"/>
</linearGradient>
<radialGradient id="paint10_radial_218_3528" cx="0" cy="0" r="1" gradientUnits="userSpaceOnUse" gradientTransform="translate(94.7961 135.479) rotate(-65.4078) scale(87.3255 202.708)">
<stop stop-color="white"/>
<stop offset="0.134042" stop-color="#C8FFE3"/>
<stop offset="0.331547" stop-color="#84FFC1"/>
<stop offset="0.518827" stop-color="#5AD597"/>
<stop offset="0.716546" stop-color="#1B8F55"/>
<stop offset="1" stop-color="#0E664D"/>
<stop offset="1" stop-color="#06542D"/>
</radialGradient>
<radialGradient id="paint11_radial_218_3528" cx="0" cy="0" r="1" gradientUnits="userSpaceOnUse" gradientTransform="translate(132.557 147.433) rotate(-107.52) scale(79.3747 188.235)">
<stop stop-color="white"/>
<stop offset="0.134042" stop-color="#C8FFE3"/>
<stop offset="0.331547" stop-color="#84FFC1"/>
<stop offset="0.518827" stop-color="#5AD597"/>
<stop offset="0.716546" stop-color="#1B8F55"/>
<stop offset="0.887916" stop-color="#06542D"/>
<stop offset="1" stop-color="#0E664D"/>
</radialGradient>
<linearGradient id="paint12_linear_218_3528" x1="127.737" y1="74.4275" x2="177.967" y2="74.4275" gradientUnits="userSpaceOnUse">
<stop stop-color="#00A2EA"/>
<stop offset="0.3" stop-color="#2BB5EE"/>
<stop offset="0.6" stop-color="#4FC5F1"/>
<stop offset="0.8" stop-color="#65CFF4"/>
<stop offset="1" stop-color="#6ED3F5"/>
</linearGradient>
<radialGradient id="paint13_radial_218_3528" cx="0" cy="0" r="1" gradientUnits="userSpaceOnUse" gradientTransform="translate(166.745 95.4887) rotate(-129.37) scale(43.296 170.104)">
<stop stop-color="white"/>
<stop offset="0.467001" stop-color="#5AD597"/>
<stop offset="0.716546" stop-color="#1B8F55"/>
<stop offset="1" stop-color="#0E664D"/>
</radialGradient>
<linearGradient id="paint14_linear_218_3528" x1="102.589" y1="90.8912" x2="102.589" y2="57.9492" gradientUnits="userSpaceOnUse">
<stop stop-color="#6ED3F5"/>
<stop offset="0.2" stop-color="#65CFF4"/>
<stop offset="0.4" stop-color="#4FC5F1"/>
<stop offset="0.7" stop-color="#2BB5EE"/>
<stop offset="1" stop-color="#00A2EA"/>
</linearGradient>
<radialGradient id="paint15_radial_218_3528" cx="0" cy="0" r="1" gradientUnits="userSpaceOnUse" gradientTransform="translate(116.5 95.5) rotate(-129.382) scale(43.3417 170.298)">
<stop stop-color="white"/>
<stop offset="0.467001" stop-color="#5AD597"/>
<stop offset="0.716546" stop-color="#1B8F55"/>
<stop offset="1" stop-color="#0E664D"/>
</radialGradient>
<linearGradient id="paint16_linear_218_3528" x1="154.7" y1="46.5397" x2="215.957" y2="-1.13256" gradientUnits="userSpaceOnUse">
<stop stop-color="#9F19AB"/>
<stop offset="0.2" stop-color="#AE24B0"/>
<stop offset="0.6" stop-color="#D643BF"/>
<stop offset="1" stop-color="#FF63CE"/>
</linearGradient>
<linearGradient id="paint17_linear_218_3528" x1="179.675" y1="28.41" x2="138.522" y2="68.5936" gradientUnits="userSpaceOnUse">
<stop offset="0.0298615"/>
<stop offset="0.0689637" stop-color="#007239"/>
<stop offset="0.117297" stop-color="#238554"/>
<stop offset="0.357888" stop-color="#6CFFB6"/>
<stop offset="0.532047" stop-color="#42926A"/>
<stop offset="0.585383" stop-color="#44936C"/>
<stop offset="0.625647" stop-color="#298054"/>
<stop offset="0.724833" stop-color="#36A56D"/>
<stop offset="0.765276" stop-color="#93F3C3"/>
<stop offset="0.81218" stop-color="#6CFFB6"/>
<stop offset="0.831945" stop-color="#000465"/>
<stop offset="0.839783"/>
</linearGradient>
<linearGradient id="paint18_linear_218_3528" x1="85.0988" y1="82.8868" x2="169.708" y2="26.0296" gradientUnits="userSpaceOnUse">
<stop stop-color="#9F19AB"/>
<stop offset="0.2" stop-color="#AE24B0"/>
<stop offset="0.6" stop-color="#D643BF"/>
<stop offset="1" stop-color="#FF63CE"/>
</linearGradient>
<linearGradient id="paint19_linear_218_3528" x1="151.331" y1="62.3843" x2="82.7526" y2="82.0548" gradientUnits="userSpaceOnUse">
<stop offset="0.0298615"/>
<stop offset="0.0689637" stop-color="#007239"/>
<stop offset="0.117297" stop-color="#238554"/>
<stop offset="0.357888" stop-color="#6CFFB6"/>
<stop offset="0.532047" stop-color="#42926A"/>
<stop offset="0.557944" stop-color="#95DFBA"/>
<stop offset="0.585383" stop-color="#44936C"/>
<stop offset="0.625647" stop-color="#298054"/>
<stop offset="0.677455" stop-color="#181757"/>
<stop offset="0.724833" stop-color="#36A56D"/>
<stop offset="0.765276" stop-color="#93F3C3"/>
<stop offset="0.81218" stop-color="#6CFFB6"/>
<stop offset="0.831945" stop-color="#000465"/>
<stop offset="0.839783"/>
</linearGradient>
<linearGradient id="paint20_linear_218_3528" x1="146.528" y1="-39.0929" x2="137.087" y2="42.9537" gradientUnits="userSpaceOnUse">
<stop stop-color="#9F19AB"/>
<stop offset="0.2" stop-color="#AE24B0"/>
<stop offset="0.6" stop-color="#D643BF"/>
<stop offset="1" stop-color="#FF63CE"/>
</linearGradient>
<radialGradient id="paint21_radial_218_3528" cx="0" cy="0" r="1" gradientUnits="userSpaceOnUse" gradientTransform="translate(107.647 58.2085) rotate(-64.4189) scale(53.4127 203.296)">
<stop stop-color="white"/>
<stop offset="0.134042" stop-color="#C8FFE3"/>
<stop offset="0.331547" stop-color="#84FFC1"/>
<stop offset="0.518827" stop-color="#5AD597"/>
<stop offset="0.716546" stop-color="#1B8F55"/>
<stop offset="0.887916" stop-color="#06542D"/>
<stop offset="1"/>
</radialGradient>
<linearGradient id="paint22_linear_218_3528" x1="135.352" y1="27.4104" x2="142.418" y2="45.6068" gradientUnits="userSpaceOnUse">
<stop stop-color="#00512F"/>
<stop offset="1" stop-color="#00954E"/>
</linearGradient>
<radialGradient id="paint23_radial_218_3528" cx="0" cy="0" r="1" gradientUnits="userSpaceOnUse" gradientTransform="translate(140.447 55.3841) rotate(-21.226) scale(25.8396 25.9819)">
<stop stop-color="#D8D8D8"/>
<stop offset="0.2" stop-color="#A5A5A5"/>
<stop offset="0.3" stop-color="#797979"/>
<stop offset="0.4" stop-color="#545454"/>
<stop offset="0.5" stop-color="#353535"/>
<stop offset="0.6" stop-color="#1D1D1D"/>
<stop offset="0.7" stop-color="#0D0D0D"/>
<stop offset="0.8" stop-color="#030303"/>
<stop offset="1"/>
</radialGradient>
<radialGradient id="paint24_radial_218_3528" cx="0" cy="0" r="1" gradientUnits="userSpaceOnUse" gradientTransform="translate(207.605 72.9766) rotate(-82.2402) scale(26.3107 75.4615)">
<stop stop-color="white"/>
<stop offset="0.134042" stop-color="#C8FFE3"/>
<stop offset="0.331547" stop-color="#84FFC1"/>
<stop offset="0.518827" stop-color="#5AD597"/>
<stop offset="0.716546" stop-color="#1B8F55"/>
<stop offset="1" stop-color="#0E664D"/>
<stop offset="1" stop-color="#06542D"/>
</radialGradient>
<radialGradient id="paint25_radial_218_3528" cx="0" cy="0" r="1" gradientUnits="userSpaceOnUse" gradientTransform="translate(59.6749 98.8753) rotate(-20.1662) scale(19.7894 56.7579)">
<stop stop-color="white"/>
<stop offset="0.134042" stop-color="#C8FFE3"/>
<stop offset="0.331547" stop-color="#84FFC1"/>
<stop offset="0.518827" stop-color="#5AD597"/>
<stop offset="0.716546" stop-color="#1B8F55"/>
<stop offset="1" stop-color="#0E664D"/>
<stop offset="1" stop-color="#06542D"/>
</radialGradient>
<radialGradient id="paint26_radial_218_3528" cx="0" cy="0" r="1" gradientUnits="userSpaceOnUse" gradientTransform="translate(39.5 52.5) rotate(-79.1867) scale(38.5676 110.615)">
<stop stop-color="white"/>
<stop offset="0.134042" stop-color="#C8FFE3"/>
<stop offset="0.331547" stop-color="#84FFC1"/>
<stop offset="0.518827" stop-color="#5AD597"/>
<stop offset="0.716546" stop-color="#1B8F55"/>
<stop offset="1" stop-color="#0E664D"/>
<stop offset="1" stop-color="#06542D"/>
</radialGradient>
</defs>
</svg>
