<svg width="256" height="124" viewBox="0 0 256 124" fill="none" xmlns="http://www.w3.org/2000/svg">
<g opacity="0.8">
<path fill-rule="evenodd" clip-rule="evenodd" d="M66.2992 97.9191C68.3699 90.4468 76.1333 82.8124 83.6393 80.8671L84.519 80.6392C87.2242 79.9381 89.5269 80.0717 91.2687 80.8793L91.5093 80.5351L92.2592 81.4534C94.6282 83.1422 95.5331 86.4146 94.3603 90.6468C92.2896 98.1191 84.5262 105.753 77.0202 107.699L76.1405 107.927C68.6346 109.872 64.2285 105.391 66.2992 97.9191Z" fill="url(#paint0_linear_218_3465)"/>
<path fill-rule="evenodd" clip-rule="evenodd" d="M65.9889 97.3812C68.0596 89.909 75.823 82.2745 83.329 80.3293L84.2087 80.1013C86.8961 79.4048 89.1862 79.5321 90.9239 80.3256L91.2559 79.8436L92.5296 81.3882C94.4587 83.1768 95.1215 86.2423 94.05 90.1089C91.9793 97.5812 84.2159 105.216 76.7099 107.161L75.8302 107.389C68.3243 109.334 63.9182 104.854 65.9889 97.3812Z" fill="url(#paint1_linear_218_3465)"/>
<rect width="28.0794" height="28.9881" rx="14.0397" transform="matrix(-0.267055 0.963681 0.96802 -0.250872 68.1864 82.3916)" fill="url(#paint2_linear_218_3465)"/>
<rect x="0.150083" y="0.152619" width="27.9166" height="28.7509" rx="13.9583" transform="matrix(-0.267055 0.963681 0.96802 -0.250872 67.862 81.7938)" fill="url(#paint3_radial_218_3465)"/>
<rect x="0.150083" y="0.152619" width="27.9166" height="28.7509" rx="13.9583" transform="matrix(-0.267055 0.963681 0.96802 -0.250872 67.862 81.7938)" stroke="url(#paint4_linear_218_3465)" stroke-width="0.428218"/>
<rect x="0.150083" y="0.152619" width="27.9166" height="28.7509" rx="13.9583" transform="matrix(-0.267055 0.963681 0.96802 -0.250872 67.862 81.7938)" stroke="url(#paint5_linear_218_3465)" stroke-width="0.428218"/>
</g>
<g opacity="0.8">
<path fill-rule="evenodd" clip-rule="evenodd" d="M88.0554 21.0986C88.0973 16.7636 85.0915 11.4849 81.3419 9.30832L80.9971 9.1082C79.625 8.31174 78.3434 8.04103 77.2678 8.23035L77.1853 7.99003L76.5543 8.43539C75.0925 9.03442 74.1549 10.6355 74.132 13.0165C74.0901 17.3515 77.0959 22.6302 80.8455 24.8067L81.1903 25.0068C84.9399 27.1834 88.0136 25.4336 88.0554 21.0986Z" fill="url(#paint6_linear_218_3465)"/>
<path fill-rule="evenodd" clip-rule="evenodd" d="M88.3045 20.8559C88.3463 16.5209 85.3406 11.2422 81.5909 9.06564L81.2461 8.86553C79.8827 8.07409 78.6086 7.80179 77.5372 7.98415L77.4271 7.6561L75.8698 8.74449L75.8586 8.78357C74.9489 9.59339 74.3985 10.9564 74.381 12.7738C74.3391 17.1088 77.3449 22.3875 81.0945 24.564L81.4393 24.7642C85.189 26.9407 88.2626 25.1909 88.3045 20.8559Z" fill="url(#paint7_linear_218_3465)"/>
<rect width="15.71" height="16.1382" rx="7.85502" transform="matrix(-0.00860109 0.998664 -0.863789 -0.501394 89.4373 12.4639)" fill="url(#paint8_linear_218_3465)"/>
<rect x="-0.186786" y="0.10647" width="15.4303" height="15.8162" rx="7.71517" transform="matrix(-0.00860107 0.998664 -0.863788 -0.501396 89.6364 12.5185)" fill="url(#paint9_radial_218_3465)"/>
<rect x="-0.186786" y="0.10647" width="15.4303" height="15.8162" rx="7.71517" transform="matrix(-0.00860107 0.998664 -0.863788 -0.501396 89.6364 12.5185)" stroke="url(#paint10_linear_218_3465)" stroke-width="0.428218"/>
<rect x="-0.186786" y="0.10647" width="15.4303" height="15.8162" rx="7.71517" transform="matrix(-0.00860107 0.998664 -0.863788 -0.501396 89.6364 12.5185)" stroke="url(#paint11_linear_218_3465)" stroke-width="0.428218"/>
</g>
<path fill-rule="evenodd" clip-rule="evenodd" d="M181.473 74.5145C176.755 57.4926 159.07 40.1013 141.972 35.6701L139.968 35.1507C133.805 33.5536 128.56 33.858 124.592 35.6976L124.044 34.9135L122.335 37.0057C116.939 40.853 114.878 48.3075 117.549 57.9482C122.266 74.9701 139.951 92.3614 157.05 96.7926L159.054 97.312C176.152 101.743 186.19 91.5365 181.473 74.5145Z" fill="url(#paint12_linear_218_3465)"/>
<path fill-rule="evenodd" clip-rule="evenodd" d="M182.179 73.2892C177.462 56.2673 159.777 38.876 142.679 34.4447L140.675 33.9254C134.553 32.3388 129.336 32.6287 125.377 34.4362L124.621 33.3382L121.719 36.857C117.325 40.9315 115.815 47.9148 118.256 56.7228C122.973 73.7448 140.658 91.136 157.757 95.5673L159.761 96.0866C176.859 100.518 186.896 90.3112 182.179 73.2892Z" fill="url(#paint13_linear_218_3465)"/>
<rect width="63.965" height="66.0351" rx="31.9825" transform="matrix(0.267055 0.963681 -0.96802 -0.250872 177.173 39.1431)" fill="url(#paint14_linear_218_3465)"/>
<rect x="-0.150083" y="0.152619" width="64.1416" height="66.0421" rx="32.0708" transform="matrix(0.267055 0.963681 -0.96802 -0.250872 178.047 38.0111)" fill="url(#paint15_radial_218_3465)"/>
<rect x="-0.150083" y="0.152619" width="64.1416" height="66.0421" rx="32.0708" transform="matrix(0.267055 0.963681 -0.96802 -0.250872 178.047 38.0111)" stroke="url(#paint16_linear_218_3465)" stroke-width="0.428218"/>
<rect x="-0.150083" y="0.152619" width="64.1416" height="66.0421" rx="32.0708" transform="matrix(0.267055 0.963681 -0.96802 -0.250872 178.047 38.0111)" stroke="url(#paint17_linear_218_3465)" stroke-width="0.428218"/>
<g filter="url(#filter0_i_218_3465)">
<path d="M156.513 60.3288C156.689 60.3135 156.832 60.2414 156.901 60.1167L159.308 49.9158C159.328 49.8315 159.295 49.7358 159.226 49.6498C159.157 49.5637 159.052 49.487 158.926 49.44C158.82 49.4001 158.711 49.3867 158.619 49.4021L141.422 52.2601C141.318 52.2773 141.242 52.3302 141.213 52.407C141.184 52.4809 141.198 52.5742 141.264 52.6692C141.319 52.7503 141.406 52.8233 141.508 52.8752L155.928 60.2013C156.023 60.2497 156.124 60.2859 156.224 60.3078C156.324 60.3297 156.423 60.3368 156.513 60.3288Z" fill="url(#paint18_linear_218_3465)"/>
<path d="M154.558 61.8101C154.601 61.8846 154.626 61.9599 154.632 62.0318C154.638 62.1038 154.624 62.1708 154.591 62.2293L150.171 69.2381C150.149 69.2723 150.117 69.3004 150.075 69.3208C150.034 69.3412 149.985 69.3535 149.93 69.357C149.823 69.3637 149.698 69.3369 149.581 69.2752C149.485 69.2248 149.404 69.156 149.352 69.0799L139.505 54.7175C139.474 54.6732 139.454 54.6277 139.446 54.5835C139.438 54.5393 139.441 54.4973 139.456 54.4599C139.471 54.4225 139.497 54.3904 139.534 54.3655C139.57 54.3406 139.615 54.3235 139.667 54.315C139.724 54.3056 139.788 54.3069 139.853 54.3189C139.919 54.3309 139.986 54.3533 140.049 54.3845L154.124 61.4258C154.219 61.4728 154.305 61.531 154.38 61.597C154.454 61.6629 154.515 61.7354 154.558 61.8101ZM160.873 60.7605C160.931 60.8326 161.003 60.9001 161.087 60.959C161.171 61.0179 161.265 61.0671 161.363 61.1038L173.507 65.3596C173.566 65.3804 173.627 65.3931 173.685 65.397C173.743 65.4009 173.797 65.3959 173.845 65.3823C173.938 65.3558 174.004 65.2972 174.022 65.2132C174.036 65.1444 174.015 65.0656 173.963 64.9895L164.116 50.6272C164.085 50.5829 164.045 50.5407 163.997 50.5031C163.95 50.4654 163.895 50.4331 163.837 50.4078C163.779 50.3825 163.719 50.3648 163.659 50.3558C163.6 50.3468 163.543 50.3466 163.491 50.3554C163.434 50.3648 163.385 50.3849 163.348 50.4141C163.31 50.4434 163.285 50.481 163.273 50.5246L160.745 60.3254C160.728 60.391 160.73 60.4632 160.752 60.5378C160.774 60.6125 160.816 60.6882 160.873 60.7605Z" fill="url(#paint19_linear_218_3465)"/>
</g>
<g filter="url(#filter1_i_218_3465)">
<path d="M83.5216 16.2791C83.5571 16.2853 83.5871 16.2798 83.6032 16.261L84.2749 14.5627C84.2805 14.5486 84.2757 14.5299 84.2635 14.511C84.2513 14.4921 84.2317 14.473 84.2075 14.4583C84.187 14.4457 84.1655 14.4378 84.1468 14.4358L80.6565 14.069C80.6352 14.0667 80.6192 14.0723 80.6118 14.0845C80.6046 14.0962 80.6058 14.1136 80.6171 14.1339C80.6267 14.1512 80.6426 14.1687 80.6621 14.1831L83.4071 16.2265C83.4252 16.24 83.4447 16.2516 83.4643 16.2606C83.484 16.2696 83.5034 16.2759 83.5216 16.2791Z" fill="url(#paint20_linear_218_3465)"/>
<path d="M83.1031 16.4439C83.1104 16.4594 83.114 16.4741 83.1138 16.4872C83.1136 16.5003 83.1096 16.5116 83.1019 16.5204L82.0874 17.5462C82.0825 17.5512 82.0755 17.5545 82.0669 17.5561C82.0582 17.5576 82.0481 17.5573 82.0371 17.5551C82.0157 17.5509 81.9912 17.5397 81.9689 17.5227C81.9507 17.5088 81.9358 17.4924 81.9268 17.4762L80.2272 14.4099C80.2219 14.4004 80.2188 14.3913 80.2179 14.383C80.2171 14.3746 80.2186 14.3673 80.2223 14.3614C80.226 14.3555 80.2318 14.3511 80.2395 14.3485C80.2472 14.3459 80.2565 14.3451 80.267 14.3463C80.2786 14.3475 80.2913 14.351 80.3043 14.3565C80.3173 14.362 80.3301 14.3694 80.3421 14.3782L83.0236 16.3531C83.0416 16.3663 83.0579 16.3811 83.0715 16.3967C83.0851 16.4123 83.0959 16.4283 83.1031 16.4439ZM84.385 16.5786C84.395 16.5944 84.4083 16.6101 84.424 16.6249C84.4397 16.6397 84.4575 16.6533 84.4764 16.6648L86.824 18.044C86.8354 18.0507 86.8473 18.0561 86.8588 18.0597C86.8703 18.0634 86.8813 18.0653 86.8911 18.0653C86.9102 18.0653 86.9245 18.0582 86.9296 18.0441C86.9337 18.0326 86.9311 18.0174 86.9221 18.0012L85.2224 14.9349C85.2171 14.9254 85.2099 14.9159 85.201 14.9067C85.1922 14.8975 85.1819 14.889 85.1708 14.8815C85.1597 14.874 85.148 14.8678 85.1363 14.8632C85.1246 14.8585 85.1132 14.8556 85.1027 14.8545C85.0911 14.8533 85.0809 14.8544 85.0728 14.8577C85.0648 14.861 85.059 14.8664 85.0559 14.8736L84.3674 16.4943C84.3628 16.5052 84.3619 16.5182 84.365 16.5327C84.368 16.5471 84.3748 16.5627 84.385 16.5786Z" fill="url(#paint21_linear_218_3465)"/>
</g>
<g filter="url(#filter2_i_218_3465)">
<path d="M76.5508 91.7365C76.6131 91.7401 76.6927 91.7223 76.7744 91.6823L82.452 88.2432C82.4989 88.2148 82.5348 88.1797 82.5548 88.1461C82.5749 88.1125 82.579 88.0803 82.5627 88.0575C82.5488 88.0381 82.5213 88.0279 82.4851 88.0285L75.7407 88.1462C75.6998 88.1469 75.6507 88.1615 75.6043 88.1868C75.5596 88.2111 75.5192 88.2444 75.4936 88.2809C75.4718 88.3121 75.4636 88.342 75.4704 88.3654L76.43 91.662C76.4363 91.6838 76.4502 91.7016 76.4709 91.7144C76.4917 91.7271 76.5188 91.7347 76.5508 91.7365Z" fill="url(#paint22_linear_218_3465)"/>
<path d="M75.2256 92.1539C75.2032 92.1821 75.1746 92.2097 75.1417 92.2351C75.1087 92.2605 75.072 92.2833 75.0335 92.302L70.2696 94.5233C70.2463 94.5341 70.2226 94.5423 70.1999 94.5473C70.1772 94.5523 70.1558 94.5541 70.1371 94.5525C70.1006 94.5494 70.0746 94.5336 70.0677 94.5061C70.0622 94.4835 70.0703 94.4554 70.0907 94.4261L73.9557 88.9064C73.9676 88.8894 73.9833 88.8725 74.0021 88.8566C74.0209 88.8408 74.0422 88.8263 74.065 88.814C74.0877 88.8017 74.1114 88.7918 74.1347 88.785C74.1579 88.7781 74.1803 88.7745 74.2005 88.7742C74.2229 88.7738 74.2422 88.7775 74.257 88.7851C74.2718 88.7926 74.2817 88.8039 74.2861 88.818L75.276 91.9975C75.2826 92.0187 75.2816 92.0435 75.273 92.0704C75.2643 92.0972 75.2483 92.1256 75.2256 92.1539ZM77.7025 92.1107C77.6855 92.1388 77.6756 92.1661 77.6733 92.1909C77.6711 92.2158 77.6765 92.2378 77.6894 92.2556L79.422 94.3635C79.4304 94.3738 79.4431 94.3813 79.4593 94.3857C79.4755 94.39 79.4949 94.3911 79.5164 94.3888C79.5582 94.3843 79.6072 94.3672 79.6532 94.3388C79.6909 94.3155 79.7225 94.2869 79.743 94.2577L83.6079 88.7379C83.6199 88.7209 83.6277 88.7041 83.631 88.6886C83.6342 88.673 83.6329 88.6589 83.627 88.6471C83.6212 88.6353 83.6109 88.626 83.5967 88.6198C83.5825 88.6136 83.5648 88.6107 83.5445 88.6111C83.5221 88.6115 83.4971 88.6159 83.4712 88.6242C83.4454 88.6325 83.4193 88.6444 83.3947 88.659L77.8725 91.9522C77.8356 91.9742 77.8015 91.9995 77.7723 92.0267C77.7431 92.0539 77.7194 92.0825 77.7025 92.1107Z" fill="url(#paint23_linear_218_3465)"/>
</g>
<defs>
<filter id="filter0_i_218_3465" x="138.188" y="48.7073" width="36.0061" height="20.7097" filterUnits="userSpaceOnUse" color-interpolation-filters="sRGB">
<feFlood flood-opacity="0" result="BackgroundImageFix"/>
<feBlend mode="normal" in="SourceGraphic" in2="BackgroundImageFix" result="shape"/>
<feColorMatrix in="SourceAlpha" type="matrix" values="0 0 0 0 0 0 0 0 0 0 0 0 0 0 0 0 0 0 127 0" result="hardAlpha"/>
<feOffset dy="0.5"/>
<feComposite in2="hardAlpha" operator="arithmetic" k2="-1" k3="1"/>
<feColorMatrix type="matrix" values="0 0 0 0 0.102633 0 0 0 0 0.254463 0 0 0 0 0.180849 0 0 0 1 0"/>
<feBlend mode="normal" in2="shape" result="effect1_innerShadow_218_3465"/>
</filter>
<filter id="filter1_i_218_3465" x="80" y="14" width="6.96204" height="4.07324" filterUnits="userSpaceOnUse" color-interpolation-filters="sRGB">
<feFlood flood-opacity="0" result="BackgroundImageFix"/>
<feBlend mode="normal" in="SourceGraphic" in2="BackgroundImageFix" result="shape"/>
<feColorMatrix in="SourceAlpha" type="matrix" values="0 0 0 0 0 0 0 0 0 0 0 0 0 0 0 0 0 0 127 0" result="hardAlpha"/>
<feOffset dy="0.2"/>
<feComposite in2="hardAlpha" operator="arithmetic" k2="-1" k3="1"/>
<feColorMatrix type="matrix" values="0 0 0 0 0.102633 0 0 0 0 0.254463 0 0 0 0 0.180849 0 0 0 0.7 0"/>
<feBlend mode="normal" in2="shape" result="effect1_innerShadow_218_3465"/>
</filter>
<filter id="filter2_i_218_3465" x="70" y="88" width="14.1246" height="6.55566" filterUnits="userSpaceOnUse" color-interpolation-filters="sRGB">
<feFlood flood-opacity="0" result="BackgroundImageFix"/>
<feBlend mode="normal" in="SourceGraphic" in2="BackgroundImageFix" result="shape"/>
<feColorMatrix in="SourceAlpha" type="matrix" values="0 0 0 0 0 0 0 0 0 0 0 0 0 0 0 0 0 0 127 0" result="hardAlpha"/>
<feOffset dx="0.2" dy="0.2"/>
<feComposite in2="hardAlpha" operator="arithmetic" k2="-1" k3="1"/>
<feColorMatrix type="matrix" values="0 0 0 0 0.102633 0 0 0 0 0.254463 0 0 0 0 0.180849 0 0 0 1 0"/>
<feBlend mode="normal" in2="shape" result="effect1_innerShadow_218_3465"/>
</filter>
<linearGradient id="paint0_linear_218_3465" x1="76.7685" y1="107.445" x2="100.524" y2="80.9675" gradientUnits="userSpaceOnUse">
<stop offset="0.0298615"/>
<stop offset="0.0689637" stop-color="#007239"/>
<stop offset="0.117297" stop-color="#238554"/>
<stop offset="0.357888" stop-color="#6CFFB6"/>
<stop offset="0.532047" stop-color="#42926A"/>
<stop offset="0.557944" stop-color="#95DFBA"/>
<stop offset="0.585383" stop-color="#44936C"/>
<stop offset="0.625647" stop-color="#298046"/>
<stop offset="0.677455" stop-color="#175737"/>
<stop offset="0.724833" stop-color="#36A55B"/>
<stop offset="0.765276" stop-color="#93F3B3"/>
<stop offset="0.81218" stop-color="#6CFF9D"/>
<stop offset="0.831945" stop-color="#B4FFCD"/>
<stop offset="0.839783" stop-color="white"/>
</linearGradient>
<linearGradient id="paint1_linear_218_3465" x1="73.4703" y1="109.908" x2="100.265" y2="80.25" gradientUnits="userSpaceOnUse">
<stop offset="0.0298615"/>
<stop offset="0.0689637" stop-color="#007226"/>
<stop offset="0.117297" stop-color="#238544"/>
<stop offset="0.357888" stop-color="#6CFF9D"/>
<stop offset="0.532047" stop-color="#42925D"/>
<stop offset="0.557944" stop-color="#95DFAE"/>
<stop offset="0.585383" stop-color="#44935E"/>
<stop offset="0.625647" stop-color="#298046"/>
<stop offset="0.677455" stop-color="#17572C"/>
<stop offset="0.677555" stop-color="#285938"/>
<stop offset="0.724833" stop-color="#36A55B"/>
<stop offset="0.748739" stop-color="#8BF6AF"/>
<stop offset="0.765276" stop-color="#93F3B3"/>
<stop offset="0.81218" stop-color="#6CFF9D"/>
<stop offset="0.831945" stop-color="#B4FFCD"/>
<stop offset="0.925" stop-color="white"/>
</linearGradient>
<linearGradient id="paint2_linear_218_3465" x1="10.6014" y1="28.0258" x2="35.1428" y2="2.33867" gradientUnits="userSpaceOnUse">
<stop offset="0.0298615"/>
<stop offset="0.0689637" stop-color="#007239"/>
<stop offset="0.117297" stop-color="#238554"/>
<stop offset="0.357888" stop-color="#6CFFB6"/>
<stop offset="0.532047" stop-color="#42926A"/>
<stop offset="0.557944" stop-color="#95DFBA"/>
<stop offset="0.585383" stop-color="#44936C"/>
<stop offset="0.625647" stop-color="#298046"/>
<stop offset="0.677455" stop-color="#175737"/>
<stop offset="0.724833" stop-color="#36A55B"/>
<stop offset="0.765276" stop-color="#93F3B3"/>
<stop offset="0.81218" stop-color="#6CFF9D"/>
<stop offset="0.831945" stop-color="#B4FFCD"/>
<stop offset="0.985" stop-color="white"/>
</linearGradient>
<radialGradient id="paint3_radial_218_3465" cx="0" cy="0" r="1" gradientUnits="userSpaceOnUse" gradientTransform="translate(-0.434562 20.7727) rotate(-59.2253) scale(30.8442 103.224)">
<stop stop-color="white"/>
<stop offset="0.134042" stop-color="#C8FFE3"/>
<stop offset="0.331547" stop-color="#84FFC1"/>
<stop offset="0.518827" stop-color="#5AD597"/>
<stop offset="0.716546" stop-color="#1B8F55"/>
<stop offset="0.887916" stop-color="#06542D"/>
<stop offset="1"/>
</radialGradient>
<linearGradient id="paint4_linear_218_3465" x1="22.8907" y1="13.1426" x2="28.8017" y2="9.59744" gradientUnits="userSpaceOnUse">
<stop stop-color="#5B53BE" stop-opacity="0"/>
<stop offset="1" stop-color="#CCC8FF"/>
</linearGradient>
<linearGradient id="paint5_linear_218_3465" x1="1.16977" y1="7.03009" x2="10.1495" y2="10.8718" gradientUnits="userSpaceOnUse">
<stop stop-color="white"/>
<stop offset="0.398028" stop-color="#CCC8FF"/>
<stop offset="1" stop-color="#5B53BE" stop-opacity="0"/>
</linearGradient>
<linearGradient id="paint6_linear_218_3465" x1="80.9798" y1="24.6715" x2="72.1853" y2="6.95653" gradientUnits="userSpaceOnUse">
<stop offset="0.0298615"/>
<stop offset="0.0689637" stop-color="#007239"/>
<stop offset="0.117297" stop-color="#238554"/>
<stop offset="0.357888" stop-color="#6CFFB6"/>
<stop offset="0.532047" stop-color="#42926A"/>
<stop offset="0.557944" stop-color="#95DFBA"/>
<stop offset="0.585383" stop-color="#44936C"/>
<stop offset="0.625647" stop-color="#298046"/>
<stop offset="0.677455" stop-color="#175737"/>
<stop offset="0.724833" stop-color="#36A55B"/>
<stop offset="0.765276" stop-color="#93F3B3"/>
<stop offset="0.81218" stop-color="#6CFF9D"/>
<stop offset="0.831945" stop-color="#B4FFCD"/>
<stop offset="0.839783" stop-color="white"/>
</linearGradient>
<linearGradient id="paint7_linear_218_3465" x1="82.3687" y1="26.4881" x2="72.4195" y2="6.61795" gradientUnits="userSpaceOnUse">
<stop offset="0.0298615"/>
<stop offset="0.0689637" stop-color="#007226"/>
<stop offset="0.117297" stop-color="#238544"/>
<stop offset="0.357888" stop-color="#6CFF9D"/>
<stop offset="0.532047" stop-color="#42925D"/>
<stop offset="0.557944" stop-color="#95DFAE"/>
<stop offset="0.585383" stop-color="#44935E"/>
<stop offset="0.625647" stop-color="#298046"/>
<stop offset="0.677455" stop-color="#17572C"/>
<stop offset="0.677555" stop-color="#285938"/>
<stop offset="0.724833" stop-color="#36A55B"/>
<stop offset="0.748739" stop-color="#8BF6AF"/>
<stop offset="0.765276" stop-color="#93F3B3"/>
<stop offset="0.81218" stop-color="#6CFF9D"/>
<stop offset="0.831945" stop-color="#B4FFCD"/>
<stop offset="0.925" stop-color="white"/>
</linearGradient>
<linearGradient id="paint8_linear_218_3465" x1="5.93133" y1="15.6024" x2="19.5907" y2="1.23424" gradientUnits="userSpaceOnUse">
<stop offset="0.0298615"/>
<stop offset="0.0689637" stop-color="#007239"/>
<stop offset="0.117297" stop-color="#238554"/>
<stop offset="0.357888" stop-color="#6CFFB6"/>
<stop offset="0.532047" stop-color="#42926A"/>
<stop offset="0.557944" stop-color="#95DFBA"/>
<stop offset="0.585383" stop-color="#44936C"/>
<stop offset="0.625647" stop-color="#298046"/>
<stop offset="0.677455" stop-color="#175737"/>
<stop offset="0.724833" stop-color="#36A55B"/>
<stop offset="0.765276" stop-color="#93F3B3"/>
<stop offset="0.81218" stop-color="#6CFF9D"/>
<stop offset="0.831945" stop-color="#B4FFCD"/>
<stop offset="0.985" stop-color="white"/>
</linearGradient>
<radialGradient id="paint9_radial_218_3465" cx="0" cy="0" r="1" gradientUnits="userSpaceOnUse" gradientTransform="translate(-0.243131 11.5644) rotate(-59.1) scale(17.1938 57.6771)">
<stop stop-color="white"/>
<stop offset="0.134042" stop-color="#C8FFE3"/>
<stop offset="0.331547" stop-color="#84FFC1"/>
<stop offset="0.518827" stop-color="#5AD597"/>
<stop offset="0.716546" stop-color="#1B8F55"/>
<stop offset="0.887916" stop-color="#06542D"/>
<stop offset="1"/>
</radialGradient>
<linearGradient id="paint10_linear_218_3465" x1="12.807" y1="7.31668" x2="16.1054" y2="5.32857" gradientUnits="userSpaceOnUse">
<stop stop-color="#5B53BE" stop-opacity="0"/>
<stop offset="1" stop-color="#CCC8FF"/>
</linearGradient>
<linearGradient id="paint11_linear_218_3465" x1="0.654471" y1="3.91375" x2="5.67077" y2="6.0705" gradientUnits="userSpaceOnUse">
<stop stop-color="white"/>
<stop offset="0.398028" stop-color="#CCC8FF"/>
<stop offset="1" stop-color="#5B53BE" stop-opacity="0"/>
</linearGradient>
<linearGradient id="paint12_linear_218_3465" x1="157.624" y1="96.2147" x2="103.507" y2="35.8986" gradientUnits="userSpaceOnUse">
<stop offset="0.0298615"/>
<stop offset="0.0689637" stop-color="#007239"/>
<stop offset="0.117297" stop-color="#238554"/>
<stop offset="0.357888" stop-color="#6CFFB6"/>
<stop offset="0.532047" stop-color="#42926A"/>
<stop offset="0.557944" stop-color="#95DFBA"/>
<stop offset="0.585383" stop-color="#44936C"/>
<stop offset="0.625647" stop-color="#298046"/>
<stop offset="0.677455" stop-color="#175737"/>
<stop offset="0.724833" stop-color="#36A55B"/>
<stop offset="0.765276" stop-color="#93F3B3"/>
<stop offset="0.81218" stop-color="#6CFF9D"/>
<stop offset="0.831945" stop-color="#B4FFCD"/>
<stop offset="0.839783" stop-color="white"/>
</linearGradient>
<linearGradient id="paint13_linear_218_3465" x1="165.137" y1="101.826" x2="104.099" y2="34.2641" gradientUnits="userSpaceOnUse">
<stop offset="0.0298615"/>
<stop offset="0.0689637" stop-color="#007226"/>
<stop offset="0.117297" stop-color="#238544"/>
<stop offset="0.357888" stop-color="#6CFF9D"/>
<stop offset="0.532047" stop-color="#42925D"/>
<stop offset="0.557944" stop-color="#95DFAE"/>
<stop offset="0.585383" stop-color="#44935E"/>
<stop offset="0.625647" stop-color="#298046"/>
<stop offset="0.677455" stop-color="#17572C"/>
<stop offset="0.677555" stop-color="#285938"/>
<stop offset="0.724833" stop-color="#36A55B"/>
<stop offset="0.748739" stop-color="#8BF6AF"/>
<stop offset="0.765276" stop-color="#93F3B3"/>
<stop offset="0.81218" stop-color="#6CFF9D"/>
<stop offset="0.831945" stop-color="#B4FFCD"/>
<stop offset="0.925" stop-color="white"/>
</linearGradient>
<linearGradient id="paint14_linear_218_3465" x1="24.15" y1="63.843" x2="80.0556" y2="5.32751" gradientUnits="userSpaceOnUse">
<stop offset="0.0298615"/>
<stop offset="0.0689637" stop-color="#007239"/>
<stop offset="0.117297" stop-color="#238554"/>
<stop offset="0.357888" stop-color="#6CFFB6"/>
<stop offset="0.532047" stop-color="#42926A"/>
<stop offset="0.557944" stop-color="#95DFBA"/>
<stop offset="0.585383" stop-color="#44936C"/>
<stop offset="0.625647" stop-color="#298046"/>
<stop offset="0.677455" stop-color="#175737"/>
<stop offset="0.724833" stop-color="#36A55B"/>
<stop offset="0.765276" stop-color="#93F3B3"/>
<stop offset="0.81218" stop-color="#6CFF9D"/>
<stop offset="0.831945" stop-color="#B4FFCD"/>
<stop offset="0.985" stop-color="white"/>
</linearGradient>
<radialGradient id="paint15_radial_218_3465" cx="0" cy="0" r="1" gradientUnits="userSpaceOnUse" gradientTransform="translate(-0.989935 47.3203) rotate(-59.2253) scale(70.2634 235.145)">
<stop stop-color="white"/>
<stop offset="0.134042" stop-color="#C8FFE3"/>
<stop offset="0.331547" stop-color="#84FFC1"/>
<stop offset="0.518827" stop-color="#5AD597"/>
<stop offset="0.716546" stop-color="#1B8F55"/>
<stop offset="0.887916" stop-color="#06542D"/>
<stop offset="1"/>
</radialGradient>
<linearGradient id="paint16_linear_218_3465" x1="52.1453" y1="29.939" x2="65.6104" y2="21.8631" gradientUnits="userSpaceOnUse">
<stop stop-color="#5B53BE" stop-opacity="0"/>
<stop offset="1" stop-color="#CCC8FF"/>
</linearGradient>
<linearGradient id="paint17_linear_218_3465" x1="2.66475" y1="16.0146" x2="23.1207" y2="24.7661" gradientUnits="userSpaceOnUse">
<stop stop-color="white"/>
<stop offset="0.398028" stop-color="#CCC8FF"/>
<stop offset="1" stop-color="#5B53BE" stop-opacity="0"/>
</linearGradient>
<linearGradient id="paint18_linear_218_3465" x1="150.021" y1="50.8311" x2="151.732" y2="61.1258" gradientUnits="userSpaceOnUse">
<stop stop-color="#0CCA7A"/>
<stop offset="1" stop-color="#016B3B"/>
</linearGradient>
<linearGradient id="paint19_linear_218_3465" x1="151.579" y1="52.3352" x2="154.288" y2="68.6351" gradientUnits="userSpaceOnUse">
<stop stop-color="#0CCA7A"/>
<stop offset="1" stop-color="#016B3B"/>
</linearGradient>
<linearGradient id="paint20_linear_218_3465" x1="82.4016" y1="14.2524" x2="82.2031" y2="16.1409" gradientUnits="userSpaceOnUse">
<stop stop-color="#0CCA7A"/>
<stop offset="1" stop-color="#016B3B"/>
</linearGradient>
<linearGradient id="paint21_linear_218_3465" x1="82.6849" y1="14.6004" x2="82.3706" y2="17.5906" gradientUnits="userSpaceOnUse">
<stop stop-color="#0CCA7A"/>
<stop offset="1" stop-color="#016B3B"/>
</linearGradient>
<linearGradient id="paint22_linear_218_3465" x1="79.1129" y1="88.0874" x2="79.1758" y2="91.6915" gradientUnits="userSpaceOnUse">
<stop stop-color="#00B76A"/>
<stop offset="1" stop-color="#01562F"/>
</linearGradient>
<linearGradient id="paint23_linear_218_3465" x1="78.8725" y1="88.6926" x2="78.9721" y2="94.3991" gradientUnits="userSpaceOnUse">
<stop stop-color="#00B76A"/>
<stop offset="1" stop-color="#01562F"/>
</linearGradient>
</defs>
</svg>
