<svg xmlns="http://www.w3.org/2000/svg" xmlns:xlink="http://www.w3.org/1999/xlink" xmlns:v="https://vecta.io/nano" width="649" height="90"><path d="M46.932 57.991c.633.054 1.288-.133 1.812-.572l31.909-37.985c.264-.314.374-.706.34-1.084s-.213-.743-.529-1.006c-.268-.223-.606-.345-.955-.345H14.491a1.49 1.49 0 0 0-1.054.434c-.27.268-.437.639-.437 1.049a1.48 1.48 0 0 0 .351.956L45.244 57.12a2.48 2.48 0 0 0 1.688.871z" fill="#beee62"/><path d="M35.21 62.589l-.009.192a2.49 2.49 0 0 1-.871 1.696L2.724 89.535a1.5 1.5 0 0 1-1.104.315c-.381-.044-.746-.234-1.003-.558a1.5 1.5 0 0 1-.325-.932V24.462a1.5 1.5 0 0 1 .439-1.061 1.49 1.49 0 0 1 1.061-.439 1.5 1.5 0 0 1 1.145.531l31.681 37.465a2.49 2.49 0 0 1 .582 1.823l.009-.192zm24.082 0l.009.192a2.49 2.49 0 0 0 .871 1.696l31.606 25.058a1.5 1.5 0 0 0 1.104.315c.381-.044.746-.234 1.003-.558a1.5 1.5 0 0 0 .325-.932V24.462a1.5 1.5 0 0 0-.439-1.061 1.49 1.49 0 0 0-1.061-.439 1.5 1.5 0 0 0-1.145.531L59.883 60.958a2.49 2.49 0 0 0-.582 1.823l-.009-.192z" fill="#68cec7"/><g fill="#f5f5f5"><use xlink:href="#B"/><path d="M227.399 82.925a1.66 1.66 0 0 1-.366 1.068c-.244.305-.651.559-1.221.763s-1.353.356-2.35.458-2.228.153-3.693.153c-1.506 0-2.757-.051-3.754-.153s-1.78-.254-2.35-.458-.977-.458-1.221-.763a1.66 1.66 0 0 1-.366-1.068V51.858c0-2.645-.193-4.72-.58-6.226s-.946-2.797-1.678-3.876-1.678-1.912-2.838-2.502-2.513-.885-4.059-.885c-1.953 0-3.927.712-5.92 2.136s-4.069 3.499-6.226 6.226v36.194a1.66 1.66 0 0 1-.366 1.068c-.244.305-.661.559-1.251.763s-1.373.356-2.35.458-2.218.153-3.723.153-2.747-.051-3.723-.153-1.76-.254-2.35-.458-1.007-.458-1.251-.763a1.66 1.66 0 0 1-.366-1.068V28.481a1.88 1.88 0 0 1 .305-1.068c.203-.305.57-.559 1.099-.763s1.211-.356 2.045-.458 1.882-.153 3.143-.153l3.235.153c.854.102 1.516.254 1.984.458s.804.458 1.007.763a1.88 1.88 0 0 1 .305 1.068v6.287c3.011-3.255 6.073-5.697 9.186-7.324s6.358-2.441 9.735-2.441c3.703 0 6.826.61 9.369 1.831s4.598 2.879 6.165 4.974 2.696 4.547 3.387 7.355 1.038 6.185 1.038 10.132v33.63zm53.406-15.381c0 3.092-.58 5.819-1.74 8.179s-2.797 4.333-4.913 5.92-4.618 2.777-7.507 3.571-6.022 1.19-9.399 1.19c-2.035 0-3.977-.153-5.829-.458s-3.51-.692-4.974-1.16-2.686-.946-3.662-1.434-1.689-.946-2.136-1.373-.793-1.099-1.038-2.014-.366-2.268-.366-4.059l.122-2.838c.081-.712.203-1.282.366-1.709s.366-.712.61-.854.549-.214.916-.214c.448 0 1.109.254 1.984.763s1.963 1.068 3.265 1.678 2.818 1.18 4.547 1.709 3.693.793 5.89.793c1.383 0 2.614-.142 3.693-.427s2.014-.692 2.808-1.221 1.394-1.2 1.801-2.014.61-1.75.61-2.808c0-1.221-.376-2.268-1.129-3.143s-1.75-1.638-2.991-2.289-2.645-1.261-4.211-1.831l-4.822-1.892a44.16 44.16 0 0 1-4.822-2.38 18.38 18.38 0 0 1-4.211-3.296c-1.241-1.302-2.238-2.869-2.991-4.7s-1.129-4.028-1.129-6.592c0-2.604.509-4.995 1.526-7.172s2.482-4.038 4.395-5.585 4.242-2.747 6.989-3.601 5.829-1.282 9.247-1.282a33.1 33.1 0 0 1 4.974.366c1.607.244 3.062.549 4.364.916s2.401.763 3.296 1.19 1.536.793 1.923 1.099.661.61.824.916.285.671.366 1.099.153.956.214 1.587.092 1.414.092 2.35l-.092 2.686c-.061.692-.163 1.241-.305 1.648s-.336.682-.58.824-.529.214-.854.214c-.366 0-.936-.214-1.709-.641s-1.74-.885-2.899-1.373-2.502-.946-4.028-1.373-3.265-.641-5.219-.641c-1.383 0-2.584.142-3.601.427s-1.851.692-2.502 1.221-1.139 1.149-1.465 1.862a5.44 5.44 0 0 0-.488 2.289c0 1.261.387 2.319 1.16 3.174s1.79 1.607 3.052 2.258 2.696 1.261 4.303 1.831l4.883 1.862a44.67 44.67 0 0 1 4.883 2.35 18.46 18.46 0 0 1 4.303 3.296c1.261 1.302 2.279 2.858 3.052 4.669s1.16 3.957 1.16 6.439z"/><use xlink:href="#B" x="178.65"/><path d="M372.114 76.211c0 3.784-.661 6.327-1.984 7.629s-3.693 1.953-7.111 1.953-5.778-.641-7.08-1.923-1.953-3.713-1.953-7.294c0-3.825.661-6.388 1.984-7.69s3.713-1.953 7.172-1.953c3.377 0 5.717.641 7.019 1.923s1.953 3.733 1.953 7.355zm44.494 1.343c0 1.79-.112 3.164-.336 4.12s-.519 1.628-.885 2.014-.905.732-1.617 1.038-1.546.57-2.502.793a26.11 26.11 0 0 1-3.113.519c-1.119.122-2.248.183-3.387.183-3.052 0-5.697-.387-7.935-1.16s-4.089-1.963-5.554-3.571-2.543-3.632-3.235-6.073-1.038-5.33-1.038-8.667V38.857h-6.531c-.773 0-1.363-.478-1.77-1.434s-.61-2.553-.61-4.791c0-1.18.051-2.177.153-2.991s.254-1.455.458-1.923.458-.804.763-1.007a1.88 1.88 0 0 1 1.068-.305h6.47V14.26c0-.407.112-.773.336-1.099s.631-.6 1.221-.824 1.383-.387 2.38-.488 2.228-.153 3.693-.153l3.754.153c.997.102 1.78.264 2.35.488s.977.498 1.221.824.366.692.366 1.099v12.146h11.841a1.88 1.88 0 0 1 1.068.305c.305.203.559.539.763 1.007s.356 1.109.458 1.923.153 1.811.153 2.991c0 2.238-.203 3.835-.61 4.791s-.997 1.434-1.77 1.434h-11.902v25.574c0 2.97.468 5.198 1.404 6.683s2.604 2.228 5.005 2.228c.814 0 1.546-.071 2.197-.214a14.14 14.14 0 0 0 1.74-.488l1.282-.488c.346-.142.661-.214.946-.214.244 0 .478.071.702.214s.397.427.519.854.234 1.007.336 1.74.153 1.668.153 2.808zm46.082-44.007l-.122 3.601c-.081.936-.203 1.668-.366 2.197s-.376.895-.641 1.099-.6.305-1.007.305c-.326 0-.692-.071-1.099-.214l-1.373-.458-1.678-.458c-.61-.142-1.282-.214-2.014-.214-.854 0-1.709.173-2.563.519s-1.74.885-2.655 1.617-1.872 1.709-2.869 2.93-2.065 2.726-3.204 4.517v33.936a1.66 1.66 0 0 1-.366 1.068c-.244.305-.661.559-1.251.763s-1.373.356-2.35.458-2.218.153-3.723.153-2.747-.051-3.723-.153-1.76-.254-2.35-.458-1.007-.458-1.251-.763a1.66 1.66 0 0 1-.366-1.068V28.481a1.88 1.88 0 0 1 .305-1.068c.203-.305.57-.559 1.099-.763s1.211-.356 2.045-.458 1.882-.153 3.143-.153l3.235.153c.854.102 1.516.254 1.984.458s.804.458 1.007.763a1.88 1.88 0 0 1 .305 1.068v6.775c1.424-2.035 2.767-3.713 4.028-5.035s2.462-2.37 3.601-3.143 2.279-1.312 3.418-1.617a13.16 13.16 0 0 1 3.418-.458 17.24 17.24 0 0 1 1.709.092c.61.061 1.241.163 1.892.305s1.221.305 1.709.488.844.376 1.068.58.387.427.488.671.193.58.275 1.007.142 1.068.183 1.923l.061 3.479z"/><use xlink:href="#B" x="355.713"/><path d="M582.746 82.925c0 .448-.102.824-.305 1.129s-.549.559-1.038.763-1.149.346-1.984.427-1.862.122-3.082.122c-1.302 0-2.36-.041-3.174-.122s-1.475-.224-1.984-.427-.875-.458-1.099-.763-.336-.682-.336-1.129v-6.042c-2.808 3.011-5.747 5.351-8.82 7.019s-6.48 2.502-10.223 2.502c-4.15 0-7.66-.804-10.529-2.411a20.1 20.1 0 0 1-7.019-6.5c-1.811-2.726-3.123-5.91-3.937-9.552s-1.221-7.477-1.221-11.505c0-4.842.519-9.196 1.556-13.062s2.553-7.161 4.547-9.888 4.476-4.822 7.446-6.287 6.388-2.197 10.254-2.197c3.052 0 5.819.621 8.301 1.862s4.944 3.062 7.385 5.463V2.847c0-.407.112-.773.336-1.099s.631-.6 1.221-.824 1.373-.397 2.35-.519 2.218-.183 3.723-.183 2.747.061 3.723.183 1.75.295 2.319.519.977.498 1.221.824.366.692.366 1.099v80.078zm-15.259-36.377c-2.197-2.767-4.303-4.883-6.317-6.348s-4.12-2.197-6.317-2.197c-1.994 0-3.713.498-5.157 1.495s-2.604 2.33-3.479 3.998-1.526 3.53-1.953 5.585a30.95 30.95 0 0 0-.641 6.317 39.7 39.7 0 0 0 .549 6.653c.366 2.157.966 4.079 1.801 5.768s1.943 3.042 3.326 4.059 3.133 1.526 5.249 1.526a10.47 10.47 0 0 0 3.082-.458c.997-.305 2.014-.804 3.052-1.495s2.106-1.597 3.204-2.716 2.299-2.492 3.601-4.12V46.548zm80.994 7.568c0 1.872-.417 3.255-1.251 4.15s-1.984 1.343-3.448 1.343H610.64c0 2.319.275 4.425.824 6.317s1.424 3.499 2.625 4.822 2.747 2.33 4.639 3.021 4.161 1.038 6.805 1.038c2.686 0 5.046-.193 7.08-.58l5.28-1.282 3.693-1.282c.977-.387 1.77-.58 2.38-.58.366 0 .671.071.916.214s.448.397.61.763.275.885.336 1.556.092 1.516.092 2.533l-.061 2.289-.183 1.617c-.081.448-.203.824-.366 1.129s-.376.6-.641.885-.987.671-2.167 1.16-2.686.966-4.517 1.434-3.927.875-6.287 1.221-4.883.519-7.568.519c-4.842 0-9.084-.61-12.726-1.831s-6.683-3.072-9.125-5.554-4.262-5.615-5.463-9.399-1.801-8.219-1.801-13.306c0-4.842.631-9.206 1.892-13.092s3.092-7.182 5.493-9.888 5.32-4.771 8.759-6.195 7.314-2.136 11.627-2.136c4.557 0 8.453.671 11.688 2.014s5.89 3.204 7.965 5.585 3.601 5.198 4.578 8.453 1.465 6.795 1.465 10.62v2.441zm-14.893-4.395c.122-4.313-.743-7.701-2.594-10.162s-4.71-3.693-8.575-3.693c-1.953 0-3.652.366-5.096 1.099s-2.645 1.719-3.601 2.96-1.689 2.706-2.197 4.395-.804 3.489-.885 5.402h22.949z"/></g><defs><path id="B" d="M160.078 83.108c0 .57-.203 1.017-.61 1.343s-1.048.559-1.923.702-2.167.214-3.876.214c-1.831 0-3.164-.071-3.998-.214s-1.424-.376-1.77-.702-.519-.773-.519-1.343v-4.333c-2.238 2.401-4.791 4.272-7.66 5.615s-6.053 2.014-9.552 2.014c-2.889 0-5.544-.376-7.965-1.129s-4.517-1.872-6.287-3.357-3.143-3.326-4.12-5.524-1.465-4.761-1.465-7.69c0-3.174.621-5.931 1.862-8.27s3.092-4.272 5.554-5.798 5.524-2.655 9.186-3.387 7.914-1.099 12.756-1.099h5.31v-3.296c0-1.709-.173-3.204-.519-4.486s-.916-2.35-1.709-3.204-1.851-1.485-3.174-1.892-2.96-.61-4.913-.61c-2.563 0-4.852.285-6.866.854s-3.794 1.2-5.341 1.892-2.838 1.322-3.876 1.892-1.882.854-2.533.854a1.82 1.82 0 0 1-1.19-.427c-.346-.285-.631-.692-.854-1.221s-.397-1.18-.519-1.953-.183-1.628-.183-2.563c0-1.261.102-2.258.305-2.991s.59-1.394 1.16-1.984 1.567-1.241 2.991-1.953 3.092-1.373 5.005-1.984 3.998-1.109 6.256-1.495 4.588-.58 6.989-.58c4.272 0 7.924.417 10.956 1.251s5.524 2.116 7.477 3.845 3.377 3.957 4.272 6.683 1.343 5.961 1.343 9.705v36.621zm-15.076-23.315h-5.859c-2.482 0-4.598.183-6.348.549s-3.174.916-4.272 1.648-1.902 1.617-2.411 2.655-.763 2.228-.763 3.571c0 2.279.722 4.069 2.167 5.371s3.448 1.953 6.012 1.953c2.157 0 4.14-.549 5.951-1.648s3.652-2.706 5.524-4.822v-9.277z"/></defs></svg>